<?xml version="1.0" standalone="no"?>
<!DOCTYPE svg PUBLIC "-//W3C//DTD SVG 20010904//EN"
 "http://www.w3.org/TR/2001/REC-SVG-20010904/DTD/svg10.dtd">
<svg version="1.0" xmlns="http://www.w3.org/2000/svg"
 width="1280.000000pt" height="531.000000pt" viewBox="0 0 1280.000000 531.000000"
 preserveAspectRatio="xMidYMid meet">
<g transform="translate(0.000000,531.000000) scale(0.100000,-0.100000)"
fill="#000000" stroke="none">
<path d="M2530 4779 c-465 -27 -879 -196 -1239 -505 -100 -86 -249 -239 -312
-322 -248 -322 -396 -682 -438 -1064 -16 -139 -14 -398 4 -530 42 -321 172
-675 335 -918 61 -90 228 -260 256 -260 23 0 142 97 237 192 138 140 179 226
142 298 -10 19 -66 107 -125 197 -179 270 -275 486 -315 708 -26 139 -30 357
-11 505 58 437 249 794 590 1102 299 269 658 421 1058 448 241 16 449 -18 897
-146 106 -30 195 -53 197 -51 3 2 -57 39 -132 82 -322 183 -450 229 -709 254
-161 15 -294 18 -435 10z"/>
<path d="M4099 4133 c-77 -58 -230 -214 -275 -282 -19 -27 -36 -67 -40 -88 -7
-44 5 -67 124 -244 189 -281 263 -441 323 -694 22 -90 24 -123 24 -325 0 -198
-3 -239 -24 -340 -34 -165 -72 -276 -151 -435 -80 -161 -159 -275 -284 -411
-358 -387 -794 -583 -1304 -585 -199 0 -428 43 -814 155 -87 25 -163 46 -170
46 -16 0 80 -57 271 -159 269 -145 417 -181 782 -188 266 -6 417 9 628 63 503
128 956 462 1264 929 242 368 367 863 328 1309 -29 339 -138 690 -299 961 -82
139 -261 335 -305 335 -8 0 -43 -21 -78 -47z"/>
<path d="M2635 3957 c-24 -14 -49 -40 -64 -67 l-24 -43 -5 -416 c-3 -337 -7
-420 -18 -438 -25 -40 -41 -27 -71 60 -23 68 -28 100 -29 189 -2 96 -5 112
-28 152 -30 51 -31 68 -12 123 41 117 -67 242 -189 219 -32 -6 -41 -3 -75 28
-49 44 -80 52 -127 35 -58 -22 -77 -58 -81 -148 -5 -111 45 -286 146 -511 123
-274 159 -473 112 -621 -30 -96 -32 -98 -77 -74 -72 38 -119 96 -144 176 -44
140 -110 199 -220 199 -72 -1 -118 -25 -147 -78 -21 -37 -28 -42 -58 -42 -82
0 -149 -56 -149 -124 0 -37 8 -54 59 -122 33 -43 78 -103 100 -133 22 -29 82
-91 134 -137 52 -46 110 -105 130 -131 47 -63 190 -219 339 -368 111 -111 126
-123 207 -158 140 -61 223 -79 361 -81 177 -1 280 31 433 137 99 68 184 163
232 260 22 44 40 85 40 92 0 7 8 23 19 36 22 29 38 121 47 279 8 139 22 180
110 326 95 156 148 270 195 414 66 201 64 269 -10 300 -35 14 -35 14 -19 90
10 51 9 61 -9 96 -11 21 -35 48 -54 58 l-34 19 36 -39 c74 -79 66 -124 -39
-238 -55 -59 -97 -119 -146 -207 -134 -239 -207 -338 -240 -326 -34 13 -8 139
83 416 74 221 90 281 101 381 12 109 3 135 -83 224 -97 100 -140 115 -217 76
-54 -27 -90 -83 -90 -138 0 -39 5 -48 48 -90 41 -40 47 -51 41 -72 -25 -85
-115 -383 -146 -477 -40 -126 -70 -171 -102 -153 -11 6 -22 25 -25 43 -6 35
-23 330 -31 527 -3 69 -8 137 -11 153 -4 19 2 40 20 71 20 34 26 58 26 104 0
74 -26 117 -90 150 -56 28 -104 28 -155 -1z"/>
<path d="M9395 3918 c-71 -41 -85 -174 -24 -242 71 -82 193 -37 215 80 8 45
-13 113 -46 146 -24 23 -37 28 -77 28 -26 0 -57 -6 -68 -12z"/>
<path d="M7970 3864 c-41 -25 -90 -55 -107 -67 l-33 -22 0 -648 0 -648 113 3
112 3 3 713 c1 391 -1 712 -6 712 -4 0 -41 -21 -82 -46z"/>
<path d="M5602 3178 l3 -693 43 -3 c58 -4 54 -22 -13 -63 l-55 -33 2 -656 3
-655 90 0 90 0 5 365 c5 395 5 394 64 458 69 77 196 83 269 14 62 -59 62 -53
67 -462 l5 -375 89 -3 c65 -2 92 1 98 10 12 19 10 672 -3 748 -22 136 -77 230
-166 281 -126 73 -305 46 -374 -55 -46 -68 -49 -55 -49 193 l0 230 28 3 27 3
3 285 c2 254 4 286 19 298 21 15 424 17 454 2 18 -10 19 -24 19 -300 l0 -290
103 0 c56 0 108 4 115 8 10 7 12 152 10 693 l-3 684 -112 3 -113 3 -2 -113
c-2 -62 -3 -187 -3 -278 l0 -165 -240 0 -240 0 -5 275 -5 275 -113 3 -112 3 2
-693z"/>
<path d="M7105 3576 c-141 -29 -240 -117 -302 -269 -34 -84 -44 -151 -44 -307
0 -194 36 -311 122 -405 81 -88 225 -135 366 -120 81 9 188 61 238 117 l38 41
-76 74 -75 74 -45 -31 c-65 -47 -147 -52 -222 -16 -62 31 -105 84 -105 128 l0
28 309 0 308 0 7 50 c8 62 -2 212 -20 303 -16 80 -61 173 -109 226 -49 54
-138 99 -221 111 -83 12 -92 11 -169 -4z m137 -226 c63 -18 138 -121 138 -190
0 -27 -1 -27 -77 -34 -96 -8 -266 -8 -287 0 -39 15 8 143 69 190 54 41 97 50
157 34z"/>
<path d="M8671 3559 c-19 -6 -50 -21 -70 -35 -45 -31 -48 -30 -56 6 l-7 31
-111 -3 -112 -3 -3 -759 c-2 -661 0 -757 12 -753 8 3 60 35 116 71 l100 65 0
158 c0 87 4 164 9 172 7 11 17 10 56 -9 94 -46 246 -34 335 24 142 94 210 266
210 531 0 249 -75 407 -227 482 -60 29 -192 40 -252 22z m166 -250 c20 -12 43
-42 60 -76 24 -49 28 -71 31 -174 4 -99 1 -128 -17 -188 -34 -112 -88 -161
-179 -161 -60 0 -128 40 -162 96 -22 35 -24 50 -27 193 -3 177 5 216 50 268
64 73 165 91 244 42z"/>
<path d="M10217 3560 c-20 -5 -59 -21 -87 -35 -62 -31 -68 -31 -72 3 l-3 27
-109 3 c-81 2 -112 -1 -118 -10 -4 -7 -8 -245 -8 -529 0 -430 2 -518 14 -528
9 -8 50 -11 117 -9 l104 3 5 370 c5 397 5 392 60 439 63 52 163 55 217 4 51
-48 53 -63 53 -443 0 -290 2 -355 14 -364 9 -8 50 -11 117 -9 l104 3 2 220 c0
121 -2 310 -6 420 -7 185 -10 205 -33 256 -34 75 -79 123 -141 153 -59 28
-171 40 -230 26z"/>
<path d="M11140 3554 c-146 -40 -259 -168 -307 -347 -22 -83 -22 -276 0 -377
44 -197 160 -325 317 -349 61 -10 95 -7 218 15 28 6 32 4 32 -16 0 -62 -79
-157 -157 -186 l-45 -18 7 -80 c4 -45 10 -99 14 -121 6 -36 10 -40 35 -38 15
1 57 16 92 32 125 58 229 193 276 356 23 79 23 86 23 605 l0 525 -108 3 c-102
3 -109 1 -114 -18 -7 -24 -6 -24 -68 -1 -73 28 -150 33 -215 15z m195 -238
c13 -9 36 -32 52 -53 l28 -36 0 -208 c0 -194 -1 -209 -21 -235 -34 -46 -70
-67 -123 -72 -66 -6 -93 2 -135 39 -59 51 -79 121 -80 274 -1 116 2 136 23
183 26 58 77 109 119 118 15 3 32 7 37 10 19 7 77 -5 100 -20z"/>
<path d="M3531 3542 c-62 -31 -83 -109 -49 -178 19 -40 101 -57 162 -34 31 11
51 75 37 114 -23 59 -113 73 -146 22 -17 -25 -8 -67 17 -81 10 -6 11 -5 1 6
-22 23 -16 67 12 85 41 27 87 9 99 -39 8 -31 6 -42 -11 -65 -38 -51 -102 -54
-149 -7 -26 26 -32 73 -15 118 13 33 57 60 111 68 l45 6 -40 2 c-22 0 -56 -7
-74 -17z"/>
<path d="M9347 3553 c-4 -3 -7 -248 -7 -543 l0 -537 -70 -32 -70 -33 0 -163
c0 -90 -4 -166 -9 -169 -5 -4 -23 5 -39 19 -44 37 -105 55 -186 55 -89 0 -132
-12 -192 -53 -146 -98 -232 -308 -221 -542 10 -222 106 -389 266 -463 46 -22
71 -27 141 -27 74 0 91 3 130 27 25 14 56 38 69 52 30 32 41 26 41 -23 l0 -38
73 -6 c125 -11 113 -44 120 320 4 174 7 489 7 699 l0 383 83 3 82 3 7 85 c8
109 10 953 2 974 -5 13 -25 16 -113 16 -59 0 -111 -3 -114 -7z m-266 -1646
c25 -14 59 -44 79 -72 l35 -49 0 -197 0 -197 -31 -39 c-49 -61 -107 -88 -184
-87 -77 1 -114 18 -162 73 -64 75 -87 187 -69 334 15 126 50 193 121 230 69
36 147 37 211 4z"/>
<path d="M6867 2149 c-93 -13 -207 -72 -207 -107 0 -12 47 -100 75 -140 1 -1
24 10 51 25 43 25 60 28 134 28 104 0 144 -19 178 -85 20 -41 30 -109 16 -122
-3 -4 -31 7 -62 24 -55 29 -61 30 -162 26 -118 -5 -173 -24 -244 -82 -132
-108 -153 -364 -42 -521 63 -88 146 -126 273 -127 83 0 146 20 210 68 24 17
27 14 47 -49 5 -16 16 -17 93 -15 l88 3 3 365 c3 389 -2 449 -43 530 -25 49
-80 105 -135 138 -63 37 -177 54 -273 41z m146 -530 c22 -6 54 -25 73 -42 35
-32 35 -33 37 -122 2 -108 -9 -132 -79 -165 -33 -17 -65 -23 -114 -24 -59 0
-75 4 -115 29 -58 36 -85 83 -85 148 0 89 46 151 127 173 60 16 107 17 156 3z"/>
<path d="M7982 2149 c-68 -12 -129 -43 -170 -88 -39 -42 -52 -33 -52 37 l0 43
-92 -3 -93 -3 -3 -519 c-2 -383 1 -522 9 -533 9 -10 33 -13 93 -11 l81 3 5
365 c6 402 6 405 70 467 43 42 88 56 164 51 74 -4 116 -30 149 -91 21 -41 22
-53 27 -417 l5 -375 90 0 90 0 0 405 0 405 -25 69 c-52 144 -191 221 -348 195z"/>
</g>
</svg>
